<svg width="569" height="569" viewBox="0 0 569 569" fill="none" xmlns="http://www.w3.org/2000/svg">
<path d="M214.523 159.046C203.379 159.046 191.987 162.169 181.3 165.046C168.587 168.469 156.212 171.661 145.134 179.046C138.437 183.511 136.018 189.056 132.523 196.046C127.667 205.758 123.87 217.576 121.523 228.268C115.402 256.15 115.7 291.128 135.134 313.713C164.202 347.494 211.402 346.597 252.634 344.491C274.041 343.397 298.236 339.736 316.745 328.046C334.517 316.821 339.978 293.882 343.3 274.713C346.328 257.247 345.667 238.297 345.523 220.602C345.432 209.507 342.725 197.808 337.023 188.157C331.889 179.47 321.275 174.582 312.967 169.879C307.06 166.536 301.684 162.376 295.745 159.046C286.7 153.975 276.495 150.588 266.634 147.491C253.712 143.432 240.469 145.118 227.245 147.046C204.273 150.396 182.353 157.534 159.523 161.046" stroke="#5600AC" stroke-width="20" stroke-linecap="round"/>
<path d="M190.523 353.046C190.096 358.592 188.857 364.263 187.856 369.713C186.69 376.06 185.33 382.347 183.745 388.602C183.421 389.88 183.058 394.08 181.689 395.046C176.179 398.936 168.654 400.551 162.745 403.879C153.263 409.22 144.311 415.654 135.523 422.046" stroke="#5600AC" stroke-width="20" stroke-linecap="round"/>
<path d="M276.523 346.046C272.742 360.151 268.08 373.986 264.245 388.046C262.918 392.912 275.788 398.203 278.634 399.824C284.588 403.215 290.47 406.718 296.523 409.935C298.191 410.822 302.375 411.983 303.634 413.713C306.132 417.148 310.3 417.629 313.523 420.046" stroke="#5600AC" stroke-width="20" stroke-linecap="round"/>
<path d="M170.523 228.046C166.431 242.182 160.523 285.762 160.523 271.046" stroke="#5600AC" stroke-width="20" stroke-linecap="round"/>
<path d="M166.523 230.046C161.753 218.917 161.014 204.979 159.523 193.046" stroke="#5600AC" stroke-width="20" stroke-linecap="round"/>
<path d="M174.523 228.046C180.743 226.641 186.385 220.529 191.578 217.102C196.82 213.642 202.166 210.26 207.523 207.046" stroke="#5600AC" stroke-width="20" stroke-linecap="round"/>
<path d="M200.523 255.046C212.24 258.952 227.739 253.619 230.3 240.046C231.092 235.852 231.217 234.046 227.023 234.046C222.901 234.046 218.689 233.463 214.856 235.046C194.191 243.582 182.61 263.815 195.3 285.157C196.514 287.197 197.51 288.046 199.8 288.046C205.362 288.046 210.649 289.249 216.134 289.935C223.94 290.911 232.034 285.754 238.523 282.046" stroke="#5600AC" stroke-width="20" stroke-linecap="round"/>
<path d="M293.523 233.046C284.776 233.046 261.579 235.274 263.745 248.268C265.849 260.89 278.899 267.715 284.023 279.102C286.186 283.91 286.7 293.046 279.023 293.046C276.641 293.046 270.536 292.02 269.523 294.046" stroke="#5600AC" stroke-width="20" stroke-linecap="round"/>
<path d="M372.523 315.046C372.523 306.592 371.306 297.361 372.745 289.046C373.884 282.467 379.032 272.115 386.078 270.102C388.92 269.29 394.856 272.962 397.189 274.268C402.9 277.466 407.312 279.967 410.023 285.991C412.379 291.228 413.045 301.557 410.3 307.046C407.229 313.189 404.801 318.483 403.3 325.046C402.706 327.647 400.442 332.586 404.523 330.546C408.461 328.577 412.708 327.56 416.967 326.546C423.845 324.909 433.71 323.208 440.523 326.046C443.439 327.261 448.322 329.11 449.3 332.491C450.524 336.718 453.206 344.086 449.745 347.824C448.121 349.578 445.717 349.003 443.523 349.157C436.89 349.623 431.023 351.065 425.078 353.935C424.25 354.335 419.682 355.118 422.412 356.046C427.951 357.929 433.583 358.422 438.856 361.268C445.409 364.806 452.923 371.02 449.412 379.046C447.876 382.556 446.042 384.935 442.023 384.935C433.483 384.935 425.008 383.474 416.467 384.602C414.267 384.892 408.149 384.773 409.967 386.046C415.146 389.671 422.632 391.219 428.412 393.824C430.945 394.966 433.516 397.565 432.412 400.602C430.599 405.586 419.524 407.761 414.856 408.268C406.424 409.185 399.189 411.046 390.523 411.046C378.942 411.046 366.88 411.915 355.856 407.602C343.869 402.911 343.523 387.364 343.523 376.379C343.523 366.275 345.523 356.483 345.523 346.435C345.523 335.085 346.544 324.536 357.523 319.046" stroke="#5600AC" stroke-width="20" stroke-linecap="round"/>
</svg>
